<?xml version="1.0" encoding="UTF-8"?><svg id="_레이어_1" xmlns="http://www.w3.org/2000/svg" viewBox="0 0 20 20"><defs><style>.cls-1{fill:#fff;stroke-width:0px;}</style></defs><path class="cls-1" d="M10,.24C4.62.24.24,4.62.24,10s4.38,9.76,9.76,9.76,9.76-4.38,9.76-9.76S15.38.24,10,.24ZM18.48,9.38h-4.45c-.03-1.22-.16-2.45-.37-3.6.99-.3,1.92-.71,2.74-1.24.03-.02.05-.04.07-.06,1.14,1.34,1.87,3.03,2.01,4.89ZM10,18.51c-.72,0-1.62-1.23-2.2-3.4.65-.11,1.33-.18,2.01-.18.81,0,1.61.08,2.37.24-.58,2.14-1.47,3.34-2.18,3.34ZM13.38,15.49c.77.25,1.49.58,2.13.99-.93.79-2.03,1.39-3.24,1.72.46-.72.83-1.66,1.11-2.71ZM7.73,18.2c-1.28-.35-2.44-1-3.4-1.86.68-.41,1.45-.73,2.26-.96.29,1.1.67,2.07,1.14,2.82ZM9.81,13.68c-.77,0-1.54.07-2.28.21-.18-.96-.29-2.06-.32-3.27h5.59c-.03,1.24-.15,2.35-.34,3.33-.85-.18-1.75-.27-2.65-.27ZM7.21,9.38c.03-1.22.15-2.33.33-3.3.8.15,1.63.24,2.46.24s1.67-.08,2.46-.24c.18.97.3,2.07.33,3.3h-5.59ZM10,1.49c.72,0,1.61,1.22,2.19,3.37-.71.13-1.44.21-2.19.21s-1.48-.07-2.19-.21c.58-2.16,1.47-3.37,2.19-3.37ZM6.61,4.56c-.79-.24-1.53-.57-2.19-.98.95-.83,2.08-1.44,3.32-1.79-.46.74-.84,1.69-1.12,2.77ZM12.27,1.8c1.24.34,2.37.96,3.32,1.79-.66.41-1.4.73-2.19.98-.29-1.08-.66-2.03-1.12-2.77ZM3.52,4.49s.04.04.07.06c.82.53,1.75.94,2.74,1.24-.22,1.14-.34,2.37-.37,3.6H1.52c.14-1.86.87-3.55,2.01-4.89ZM1.52,10.62h4.45c.03,1.21.15,2.41.36,3.54-1.01.29-1.97.69-2.81,1.21-.02.02-.05.03-.07.05-1.1-1.32-1.8-2.99-1.94-4.81ZM16.41,15.59s-.05-.04-.07-.06c-.8-.53-1.71-.95-2.68-1.26.22-1.16.35-2.41.38-3.65h4.45c-.14,1.89-.9,3.62-2.08,4.97Z"/></svg>