<?xml version="1.0" encoding="UTF-8"?><svg id="_레이어_1" xmlns="http://www.w3.org/2000/svg" viewBox="0 0 70 70"><defs><style>.cls-1{fill:#fff;stroke-width:0px;}</style></defs><path class="cls-1" d="M22.11,15.5c-2.94,0-5.56-3.9-5.56-6.98s2.5-5.56,5.56-5.56,5.56,2.5,5.56,5.56-2.62,6.98-5.56,6.98ZM22.11,5.4c-1.72,0-3.12,1.4-3.12,3.12,0,1.91,1.81,4.54,3.12,4.54s3.12-2.63,3.12-4.54c0-1.72-1.4-3.12-3.12-3.12Z"/><path class="cls-1" d="M13.47,39.02c-.27,0-.54-.09-.76-.27-1.85-1.48-4.98-8.05-4.42-9.91.62-1.95,3.31-7.34,5.38-9.61,1.91-2.1,4.63-3.31,7.46-3.31h1.97c2.56.09,4.59,1.02,6.09,2.77,3.14,3.66,3.15,10.01,2.6,14.69-.08.67-.68,1.14-1.36,1.07-.67-.08-1.15-.69-1.07-1.36.4-3.43.68-9.66-2.02-12.81-1.05-1.23-2.45-1.85-4.28-1.92h-1.93c-2.14,0-4.2.91-5.65,2.51-1.86,2.05-4.36,7.16-4.85,8.69-.01.99,2.27,6.21,3.61,7.28.53.42.61,1.19.19,1.72-.24.3-.6.46-.96.46Z"/><path class="cls-1" d="M31.69,53.92c-.66,0-1.2-.52-1.22-1.18l-.32-10.8c-.06-.77-3.79-1.73-5.79-2.24-4.47-1.14-9.55-2.44-9.55-6.31v-8.03c0-.67.55-1.22,1.22-1.22s1.22.55,1.22,1.22v8.03c0,1.98,4.27,3.07,7.71,3.94,3.99,1.02,7.44,1.9,7.63,4.48l.32,10.85c.02.68-.51,1.24-1.19,1.26h-.04Z"/><path class="cls-1" d="M13.48,58.75c-.36,0-.71-.15-.95-.45-.42-.53-.34-1.29.18-1.72,3.01-2.43,6.06-6.25,5.82-8.06-.09-.66-.23-1.46-.38-2.34-.28-1.56-.59-3.34-.74-5.05-.06-.67.43-1.27,1.11-1.33.7-.07,1.27.43,1.33,1.11.15,1.61.45,3.33.72,4.85.16.92.31,1.76.4,2.44.47,3.47-4.18,8.25-6.71,10.29-.23.18-.5.27-.77.27Z"/><path class="cls-1" d="M26.01,35.57c-.67,0-1.22-.55-1.22-1.22v-8.94c0-.67.55-1.22,1.22-1.22s1.22.55,1.22,1.22v8.94c0,.67-.55,1.22-1.22,1.22Z"/><path class="cls-1" d="M67.8,67.04c-.67,0-1.22-.55-1.22-1.22v-12.41h-19.43v3.51c0,.68-.55,1.22-1.22,1.22h-20.65v3.5c0,.68-.55,1.22-1.22,1.22H3.4v2.95c0,.68-.55,1.22-1.22,1.22s-1.22-.55-1.22-1.22v-4.17c0-.68.55-1.22,1.22-1.22h20.65v-3.5c0-.68.55-1.22,1.22-1.22h20.65v-3.51c0-.68.55-1.22,1.22-1.22h21.87c.67,0,1.22.55,1.22,1.22v13.63c0,.68-.55,1.22-1.22,1.22Z"/></svg>