<?xml version="1.0" encoding="UTF-8"?><svg id="_레이어_1" xmlns="http://www.w3.org/2000/svg" viewBox="0 0 70 70"><defs><style>.cls-1{fill:#fff;stroke-width:0px;}</style></defs><path class="cls-1" d="M23.35,55.08c-.15.52.14,1.06.66,1.22.52.15,1.06-.14,1.22-.66.74-2.47,2.48-4.99,9.79-4.99s9.15,2.63,9.85,5.21c.12.43.51.72.94.72.08,0,.17-.01.26-.03.52-.14.83-.68.69-1.2-1.23-4.53-4.96-6.65-11.74-6.65s-10.36,2.03-11.66,6.38Z"/><path class="cls-1" d="M35.01,37.67c-2.83,0-5.13,2.3-5.13,5.13s2.3,5.13,5.13,5.13,5.13-2.3,5.13-5.13-2.3-5.13-5.13-5.13ZM35.01,45.98c-1.75,0-3.18-1.42-3.18-3.18s1.42-3.18,3.18-3.18,3.18,1.42,3.18,3.18-1.43,3.18-3.18,3.18Z"/><path class="cls-1" d="M23.35,24.88c-.15.52.14,1.06.66,1.22.52.15,1.06-.14,1.22-.66.74-2.47,2.48-4.99,9.79-4.99s9.15,2.63,9.85,5.2c.12.43.51.72.94.72.08,0,.17-.01.26-.03.52-.14.83-.68.69-1.2-1.23-4.53-4.96-6.64-11.74-6.64s-10.36,2.03-11.66,6.38Z"/><path class="cls-1" d="M40.14,12.61c0-2.83-2.3-5.13-5.13-5.13s-5.13,2.3-5.13,5.13,2.3,5.13,5.13,5.13,5.13-2.3,5.13-5.13ZM31.83,12.61c0-1.75,1.42-3.18,3.18-3.18s3.18,1.42,3.18,3.18-1.43,3.18-3.18,3.18-3.18-1.42-3.18-3.18Z"/><path class="cls-1" d="M16.41,31.19c0,2.63,2.14,4.77,4.77,4.77s4.77-2.14,4.77-4.77-2.14-4.77-4.77-4.77-4.77,2.14-4.77,4.77ZM23.99,31.19c0,1.55-1.26,2.81-2.81,2.81s-2.81-1.26-2.81-2.81,1.26-2.81,2.81-2.81,2.81,1.26,2.81,2.81Z"/><path class="cls-1" d="M10.38,42.6c-.14.52.17,1.06.69,1.2.09.02.17.03.26.03.43,0,.82-.29.94-.72.63-2.32,2.18-4.69,8.91-4.69,2.18,0,3.97.26,5.32.76.51.19,1.07-.07,1.26-.57.19-.51-.07-1.07-.57-1.26-1.59-.6-3.56-.89-6.01-.89-6.23,0-9.66,1.95-10.8,6.13Z"/><path class="cls-1" d="M58.82,43.8c.52-.14.83-.68.69-1.2-1.14-4.18-4.57-6.13-10.79-6.13-2.45,0-4.41.29-6.01.89-.5.19-.76.75-.57,1.26s.75.76,1.26.57c1.35-.51,3.14-.76,5.32-.76,6.73,0,8.28,2.37,8.91,4.69.12.43.51.72.94.72.08,0,.17-.01.26-.03Z"/><path class="cls-1" d="M43.94,31.19c0,2.63,2.14,4.77,4.77,4.77s4.77-2.14,4.77-4.77-2.14-4.77-4.77-4.77-4.77,2.14-4.77,4.77ZM48.71,28.37c1.55,0,2.81,1.26,2.81,2.81s-1.26,2.81-2.81,2.81-2.81-1.26-2.81-2.81,1.26-2.81,2.81-2.81Z"/><path class="cls-1" d="M57.96,9.87C38.77-6.9,20.86,3.61,15.67,7.36l1.95-5.04c.2-.5-.05-1.07-.56-1.26-.5-.19-1.07.05-1.26.56l-3.02,7.78c-.12.3-.08.64.1.91.18.27.48.42.81.42h8.06c.54,0,.98-.44.98-.98s-.44-.98-.98-.98h-4.72c5.07-3.6,21.72-13.07,39.68,2.61.67.52,16.35,12.91,7.88,35.44-.02.05-2.05,5.38-5.96,9.18-.39.38-.4.99-.02,1.38.19.2.45.3.7.3s.49-.09.68-.28c4.24-4.11,6.34-9.66,6.43-9.9,8.99-23.92-8.35-37.55-8.48-37.64Z"/><path class="cls-1" d="M56.69,58.45h-8.63c-.54,0-.98.44-.98.98s.44.98.98.98h5.88c-19.44,14.03-36.74,1.42-37.45.88-8.15-6.57-12.67-14.15-13.44-22.51C1.76,24.68,11.68,12.95,11.78,12.84c.35-.41.31-1.03-.1-1.38-.41-.35-1.03-.31-1.38.1-.43.5-10.55,12.44-9.19,27.37.81,8.92,5.57,16.95,14.19,23.89.13.09,8.23,6.04,19.58,6.04,5.96,0,12.81-1.68,19.88-6.67l-1.93,5.86c-.17.51.11,1.06.62,1.23.1.03.2.05.31.05.41,0,.79-.26.93-.67l2.95-8.94c.1-.3.05-.62-.14-.88-.18-.25-.48-.4-.79-.4Z"/></svg>