<?xml version="1.0" encoding="UTF-8"?><svg id="_레이어_1" xmlns="http://www.w3.org/2000/svg" viewBox="0 0 70 70"><defs><style>.cls-1{fill:#fff;stroke-width:0px;}</style></defs><path class="cls-1" d="M35,19.66c3.34,0,6.31-4.45,6.31-7.96s-2.83-6.31-6.31-6.31-6.31,2.83-6.31,6.31,2.97,7.96,6.31,7.96ZM35,7.94c2.08,0,3.77,1.69,3.77,3.76,0,2.33-2.15,5.41-3.77,5.41s-3.76-3.09-3.76-5.41c0-2.08,1.69-3.76,3.76-3.76Z"/><path class="cls-1" d="M36.14,20.44h-2.29c-6.38,0-11.57,5.19-11.57,11.56v12.68c0,.7.57,1.27,1.27,1.27s1.27-.57,1.27-1.27v-12.68c0-4.97,4.05-9.02,9.02-9.02h2.29c4.97,0,9.02,4.05,9.02,9.02v12.68c0,.7.57,1.27,1.27,1.27s1.27-.57,1.27-1.27v-12.68c0-6.38-5.19-11.56-11.57-11.56Z"/><path class="cls-1" d="M41.12,32.24c-.7,0-1.27.57-1.27,1.27v29.82c0,.7.57,1.27,1.27,1.27s1.27-.57,1.27-1.27v-29.82c0-.7-.57-1.27-1.27-1.27Z"/><path class="cls-1" d="M28.88,32.24c-.7,0-1.27.57-1.27,1.27v29.82c0,.7.57,1.27,1.27,1.27s1.27-.57,1.27-1.27v-29.82c0-.7-.57-1.27-1.27-1.27Z"/><path class="cls-1" d="M35,45.57c-.7,0-1.27.57-1.27,1.27v16.49c0,.7.57,1.27,1.27,1.27s1.27-.57,1.27-1.27v-16.49c0-.7-.57-1.27-1.27-1.27Z"/><path class="cls-1" d="M14.96,55.78l-10.51,6.07.98-3.09c.21-.67-.16-1.38-.83-1.6-.67-.22-1.39.16-1.6.83l-1.97,6.22c-.11.33-.08.7.11,1.03.19.32.49.53.83.61l6.36,1.41c.09.02.18.03.28.03.58,0,1.11-.4,1.24-1,.15-.69-.28-1.36-.97-1.52l-3.17-.7,10.51-6.07c.61-.35.82-1.13.47-1.74-.35-.61-1.13-.82-1.74-.47Z"/><path class="cls-1" d="M3.01,12.01c.21.67.92,1.04,1.6.83.67-.21,1.04-.93.83-1.6l-.98-3.09,10.51,6.07c.2.12.42.17.63.17.44,0,.87-.23,1.1-.64.35-.61.14-1.39-.47-1.74L5.73,5.94l3.17-.7c.69-.15,1.12-.83.97-1.52-.15-.69-.83-1.12-1.52-.97l-6.37,1.4s-.01,0-.02,0h0s0,0,0,0c0,0,0,0,0,0h0s0,0,0,0c-.02,0-.04.01-.06.02h0s0,0,0,0c0,0,0,0,0,0-.29.09-.54.28-.71.55,0,0,0,0,0,0,0,0-.01.02-.01.02,0,0,0,.02-.01.02,0,0,0,0,0,0-.17.32-.2.68-.09,1l1.97,6.21Z"/><path class="cls-1" d="M17.67,33.73H5.53l2.39-2.19c.52-.47.56-1.28.08-1.8-.47-.52-1.28-.55-1.8-.08l-4.81,4.4s-.07.07-.11.11h0c-.19.22-.3.51-.3.82h0c0,.33.12.63.33.85,0,0,0,0,0,0,.02.02.04.04.06.06h0s0,0,0,0c0,0,.02.02.02.02l4.81,4.4c.24.22.55.33.86.33.34,0,.69-.14.94-.41.47-.52.44-1.32-.08-1.8l-2.4-2.19h12.14c.7,0,1.27-.57,1.27-1.27s-.57-1.27-1.27-1.27Z"/><path class="cls-1" d="M54.4,14.39c.22,0,.44-.06.63-.17l10.51-6.07-.98,3.09c-.21.67.16,1.38.83,1.6.68.21,1.38-.16,1.6-.83l1.97-6.21c.1-.32.08-.68-.09-1,0,0,0,0,0,0,0,0,0-.02-.01-.02,0,0,0-.02-.01-.02h0s0,0,0,0c-.19-.31-.49-.51-.82-.58l-6.36-1.4c-.68-.15-1.37.28-1.52.97-.15.69.28,1.37.97,1.52l3.17.7-10.51,6.07c-.61.35-.82,1.13-.47,1.74.24.41.66.64,1.1.64Z"/><path class="cls-1" d="M68.69,34.15s0,0,0,0h0s-.04-.05-.07-.07c0,0,0,0,0,0,0,0,0,0,0,0h-.01s-4.81-4.41-4.81-4.41c-.52-.47-1.32-.44-1.8.08-.47.52-.44,1.32.08,1.8l2.39,2.19h-12.14c-.7,0-1.27.57-1.27,1.27s.57,1.27,1.27,1.27h12.14l-2.39,2.19c-.52.47-.56,1.28-.08,1.8.25.28.6.41.94.41.31,0,.62-.11.86-.33l4.81-4.4s0,0,.01-.01c0,0,0,0,0,0h0s0,0,0,0h0s0,0,0,0c.02-.02.03-.03.05-.05h0s0,0,0,0c0,0,0,0,0,0h0s0,0,0,0c.21-.23.34-.53.34-.86h0c0-.33-.13-.63-.33-.85Z"/><path class="cls-1" d="M66.99,57.99c-.21-.67-.92-1.04-1.6-.83-.67.21-1.04.93-.83,1.6l.98,3.09-10.51-6.07c-.6-.35-1.39-.14-1.74.47-.35.61-.14,1.39.47,1.74l10.51,6.07-3.17.7c-.69.15-1.12.83-.97,1.52.13.59.66,1,1.24,1,.09,0,.18,0,.28-.03l6.37-1.41s.01,0,.02,0h0s0,0,0,0h0s0,0,0,0h0l.05-.02h0s0,0,0,0h0c.3-.09.56-.29.73-.58.19-.33.22-.7.11-1.03l-1.97-6.22Z"/></svg>