<?xml version="1.0" encoding="UTF-8"?><svg id="_레이어_1" xmlns="http://www.w3.org/2000/svg" viewBox="0 0 55 55"><defs><style>.cls-1{fill:#6069e2;}.cls-1,.cls-2,.cls-3{stroke-width:0px;}.cls-2{fill:#fff;}.cls-3{fill:#231f20;}</style></defs><rect class="cls-2" x="15.04" y="6.47" width="24.92" height="46.55"/><path class="cls-3" d="M40.95,54.01H14.05V5.49h26.89v48.52ZM16.02,52.04h22.96V7.46h-22.96v44.58Z"/><rect class="cls-3" x="35.31" y=".99" width="1.97" height="5.48"/><rect class="cls-1" x="19.88" y="11.72" width="6.2" height="6.75"/><rect class="cls-2" x="29.77" y="12.69" width="4.46" height="4.85"/><path class="cls-3" d="M35.22,18.52h-6.43v-6.82h6.43v6.82ZM30.76,16.55h2.49v-2.89h-2.49v2.89Z"/><rect class="cls-2" x="20.77" y="22.19" width="4.46" height="4.85"/><path class="cls-3" d="M26.21,28.03h-6.43v-6.82h6.43v6.82ZM21.75,26.06h2.49v-2.89h-2.49v2.89Z"/><rect class="cls-2" x="29.77" y="22.19" width="4.46" height="4.85"/><path class="cls-3" d="M35.22,28.03h-6.43v-6.82h6.43v6.82ZM30.76,26.06h2.49v-2.89h-2.49v2.89Z"/><rect class="cls-2" x="20.77" y="32.01" width="4.46" height="4.85"/><path class="cls-3" d="M26.21,37.85h-6.43v-6.82h6.43v6.82ZM21.75,35.88h2.49v-2.89h-2.49v2.89Z"/><rect class="cls-2" x="29.77" y="32.01" width="4.46" height="4.85"/><path class="cls-3" d="M35.22,37.85h-6.43v-6.82h6.43v6.82ZM30.76,35.88h2.49v-2.89h-2.49v2.89Z"/><rect class="cls-2" x="20.77" y="41.82" width="4.46" height="4.85"/><path class="cls-3" d="M26.21,47.66h-6.43v-6.82h6.43v6.82ZM21.75,45.69h2.49v-2.89h-2.49v2.89Z"/><rect class="cls-2" x="29.77" y="41.82" width="4.46" height="4.85"/><path class="cls-3" d="M35.22,47.66h-6.43v-6.82h6.43v6.82ZM30.76,45.69h2.49v-2.89h-2.49v2.89Z"/></svg>