<?xml version="1.0" encoding="UTF-8"?><svg id="_레이어_1" xmlns="http://www.w3.org/2000/svg" viewBox="0 0 55 55"><defs><style>.cls-1{fill:#6069e2;}.cls-1,.cls-2,.cls-3{stroke-width:0px;}.cls-2{fill:#fff;}.cls-3{fill:#231f20;}</style></defs><rect class="cls-3" x="47.07" y="43.3" width="1.67" height="5.62"/><rect class="cls-3" x="43.35" y="44.74" width="1.67" height="9.3"/><rect class="cls-3" x="6.28" y="42.37" width="1.67" height="7.44"/><rect class="cls-3" x="10.19" y="46.6" width="1.67" height="7.44"/><rect class="cls-2" x="1.42" y="14.22" width="52.15" height="23.8" rx="2.79" ry="2.79"/><path class="cls-3" d="M50.79,38.85H4.21c-2,0-3.63-1.63-3.63-3.63v-18.22c0-2,1.63-3.63,3.63-3.63h46.57c2,0,3.63,1.63,3.63,3.63v18.22c0,2-1.63,3.63-3.63,3.63ZM4.21,15.05c-1.08,0-1.95.88-1.95,1.95v18.22c0,1.08.88,1.95,1.95,1.95h46.57c1.08,0,1.95-.88,1.95-1.95v-18.22c0-1.08-.88-1.95-1.95-1.95H4.21Z"/><rect class="cls-3" x="14.02" y="18.06" width="1.81" height="1.67"/><rect class="cls-3" x="10.12" y="18.06" width="1.81" height="1.67"/><rect class="cls-3" x="6.21" y="18.06" width="1.81" height="1.67"/><rect class="cls-2" x="15.65" y="1.8" width="23.71" height="12.37"/><path class="cls-3" d="M40.19,15H14.81V.96h25.38v14.04ZM16.48,13.33h22.03V2.63h-22.03v10.69Z"/><rect class="cls-1" x="15.65" y="28.41" width="23.71" height="20.54"/><path class="cls-3" d="M40.19,49.79H14.81v-22.21h25.38v22.21ZM16.48,48.11h22.03v-18.87h-22.03v18.87Z"/><rect class="cls-3" x="21.12" y="33.22" width="12.76" height="1.67"/><rect class="cls-3" x="21.12" y="37.84" width="12.76" height="1.67"/><rect class="cls-3" x="21.12" y="42.47" width="12.76" height="1.67"/><polygon class="cls-3" points="44.31 29.87 42.64 29.87 42.64 25.64 12.14 25.64 12.14 29.87 10.47 29.87 10.47 23.97 44.31 23.97 44.31 29.87"/></svg>