<?xml version="1.0" encoding="UTF-8"?><svg id="_레이어_1" xmlns="http://www.w3.org/2000/svg" viewBox="0 0 55 55"><defs><style>.cls-1{fill:#6069e2;}.cls-1,.cls-2{stroke-width:0px;}.cls-2{fill:#231f20;}</style></defs><path class="cls-2" d="M49.93,49.54c-2.51,0-4.55-2.04-4.55-4.55s2.04-4.55,4.55-4.55,4.55,2.04,4.55,4.55-2.04,4.55-4.55,4.55ZM49.93,41.85c-1.73,0-3.14,1.41-3.14,3.14s1.41,3.14,3.14,3.14,3.14-1.41,3.14-3.14-1.41-3.14-3.14-3.14Z"/><path class="cls-2" d="M27.5,49.54c-2.51,0-4.55-2.04-4.55-4.55s2.04-4.55,4.55-4.55,4.55,2.04,4.55,4.55-2.04,4.55-4.55,4.55ZM27.5,41.85c-1.73,0-3.14,1.41-3.14,3.14s1.41,3.14,3.14,3.14,3.14-1.41,3.14-3.14-1.41-3.14-3.14-3.14Z"/><path class="cls-2" d="M5.07,49.54c-2.51,0-4.55-2.04-4.55-4.55s2.04-4.55,4.55-4.55,4.55,2.04,4.55,4.55-2.04,4.55-4.55,4.55ZM5.07,41.85c-1.73,0-3.14,1.41-3.14,3.14s1.41,3.14,3.14,3.14,3.14-1.41,3.14-3.14-1.41-3.14-3.14-3.14Z"/><rect class="cls-2" x="26.8" y="24.69" width="1.41" height="14.02"/><path class="cls-2" d="M50.63,38.79h-1.41v-8.2H5.78v8.2h-1.41v-8.91c0-.39.32-.7.7-.7h44.86c.39,0,.7.32.7.7v8.91Z"/><path class="cls-1" d="M37.02,23.52c0-3.33-2.45-6.08-5.64-6.58.54-.77.86-1.7.86-2.71v-3.33c0-2.61-2.12-4.73-4.73-4.73s-4.73,2.12-4.73,4.73v3.33c0,1.01.32,1.95.86,2.71-3.2.49-5.64,3.24-5.64,6.58"/><path class="cls-2" d="M37.72,23.52h-1.41c0-2.96-2.12-5.43-5.05-5.88l-1.12-.17.65-.93c.48-.68.73-1.48.73-2.31v-3.33c0-2.22-1.81-4.03-4.03-4.03s-4.03,1.81-4.03,4.03v3.33c0,.83.25,1.63.73,2.31l.65.93-1.12.17c-2.92.45-5.05,2.92-5.05,5.88h-1.41c0-3.32,2.16-6.15,5.27-7.06-.32-.7-.48-1.46-.48-2.23v-3.33c0-3,2.44-5.44,5.44-5.44s5.44,2.44,5.44,5.44v3.33c0,.78-.16,1.54-.48,2.23,3.1.91,5.27,3.74,5.27,7.06Z"/></svg>