<?xml version="1.0" encoding="UTF-8"?><svg id="_레이어_1" xmlns="http://www.w3.org/2000/svg" viewBox="0 0 55 55"><defs><style>.cls-1{fill:#6069e2;}.cls-1,.cls-2{stroke-width:0px;}.cls-2{fill:#212121;}</style></defs><path class="cls-1" d="M17.81,22.83h2.32l.27,1.92h.07c1.17-1.25,2.54-2.22,4.21-2.22,2.07,0,3.22.9,3.82,2.49,1.37-1.45,2.74-2.49,4.46-2.49,2.87,0,4.21,1.92,4.21,5.39v7.11h-2.84v-6.71c0-2.39-.75-3.34-2.32-3.34-.92,0-1.95.62-3.09,1.87v8.18h-2.87v-6.71c0-2.39-.7-3.34-2.27-3.34-.95,0-2,.62-3.12,1.87v8.18h-2.87v-12.19ZM32.4,20.31l.82-1.25c.6.55,1.3.92,2.22.92.87,0,1.42-.32,1.42-1.02,0-.65-.67-1.02-2.14-1.02v-1.2c1.27,0,1.85-.47,1.85-1.05s-.42-.9-1.22-.9c-.67,0-1.27.25-1.92.75l-.85-1.2c.8-.67,1.85-1.12,3.12-1.12,1.7,0,3.09.87,3.09,2.24,0,.9-.47,1.52-1.42,1.87,1.05.25,1.62.92,1.62,1.87,0,1.45-1.35,2.32-3.37,2.32-1.2,0-2.29-.42-3.22-1.22Z"/><polygon class="cls-2" points="55 48.85 47.03 44.25 47.03 48.12 5.58 48.12 5.58 10.07 9.46 10.07 4.6 2.1 0 10.07 3.88 10.07 3.88 49.83 47.03 49.83 47.03 53.7 55 48.85"/><rect class="cls-2" x="9.7" y="1.93" width="5.27" height="1.71"/><rect class="cls-2" x="19.93" y="1.93" width="8.6" height="1.71"/><rect class="cls-2" x="32.99" y="1.93" width="8.53" height="1.71"/><polygon class="cls-2" points="50.38 7.23 52.09 7.23 52.09 1.93 46.19 1.93 46.19 3.64 50.38 3.64 50.38 7.23"/><rect class="cls-2" x="50.38" y="12.13" width="1.71" height="8.53"/><rect class="cls-2" x="50.38" y="25.41" width="1.71" height="8.23"/><rect class="cls-2" x="50.38" y="38.39" width="1.71" height="5.86"/></svg>