<?xml version="1.0" encoding="UTF-8"?><svg id="_레이어_1" xmlns="http://www.w3.org/2000/svg" viewBox="0 0 55 55"><defs><style>.cls-1{fill:#6069e2;}.cls-1,.cls-2,.cls-3,.cls-4{stroke-width:0px;}.cls-3{fill:#fff;}.cls-4{fill:#231f20;}</style></defs><rect class="cls-4" x="49.56" y="28.89" width="1.54" height="8.82" transform="translate(-9.98 35.53) rotate(-35.61)"/><rect class="cls-4" x=".88" y="32.53" width="8.82" height="1.54" transform="translate(-24.86 18.21) rotate(-54.4)"/><path class="cls-4" d="M33.59,19.65h-11.57c-1.34,0-2.42-1.09-2.42-2.42v-8.08c0-1.34,1.09-2.42,2.42-2.42h11.57c1.34,0,2.42,1.09,2.42,2.42v8.08c0,1.34-1.09,2.42-2.42,2.42ZM22.02,8.26c-.49,0-.88.4-.88.88v8.08c0,.49.4.88.88.88h11.57c.49,0,.88-.4.88-.88v-8.08c0-.49-.4-.88-.88-.88h-11.57Z"/><rect class="cls-1" x="2.72" y="36.89" width="50.17" height="9.17"/><path class="cls-4" d="M53.66,46.83H1.95v-10.71h51.71v10.71ZM3.49,45.29h48.64v-7.64H3.49v7.64Z"/><rect class="cls-4" x="22.39" y="40.71" width="10.84" height="1.54"/><rect class="cls-3" x="7.86" y="11.71" width="39.9" height="25.17"/><path class="cls-4" d="M48.52,37.66H7.09V10.95h41.43v26.71ZM8.63,36.12h38.36V12.48H8.63v23.64Z"/><path class="cls-2" d="M27.71,30.25c-.72-.03-1.39-.17-2.01-.4-.62-.23-1.18-.53-1.66-.91l.6-.91c.53.39,1.05.67,1.56.87.51.19,1.02.31,1.51.34v-4.46c-.64-.14-1.18-.31-1.62-.5-.44-.19-.8-.41-1.07-.65-.27-.24-.47-.51-.59-.81-.12-.3-.18-.62-.18-.98v-.36c0-.85.31-1.52.94-2.02.63-.5,1.47-.79,2.51-.85v-1.06h.91v1.06c.66.04,1.25.16,1.76.35.51.19.96.41,1.33.66l-.56.83c-.32-.22-.69-.4-1.12-.54-.42-.14-.9-.23-1.41-.27v4.23c.67.17,1.23.35,1.69.55.45.2.82.42,1.1.67.28.25.48.52.6.83.12.3.18.65.18,1.03v.36c0,.4-.08.77-.24,1.11-.16.34-.39.64-.7.9s-.68.47-1.12.63c-.44.16-.94.26-1.5.31v1.26h-.91v-1.24ZM25.4,21.79c0,.22.04.42.12.59.08.18.2.34.38.49.18.15.41.29.71.41.3.13.67.25,1.11.36v-4.02c-.67.06-1.23.25-1.66.57-.44.33-.65.76-.65,1.31v.28ZM31.05,26.96c0-.22-.04-.42-.11-.61-.07-.19-.2-.36-.38-.53-.18-.17-.43-.32-.74-.45-.31-.14-.71-.27-1.2-.39v4.25c.77-.09,1.37-.31,1.79-.66.42-.35.64-.78.64-1.27v-.33Z"/></svg>