<?xml version="1.0" encoding="UTF-8"?><svg id="_레이어_1" xmlns="http://www.w3.org/2000/svg" viewBox="0 0 55 55"><defs><style>.cls-1{fill:#6069e2;}.cls-1,.cls-2{stroke-width:0px;}.cls-2{fill:#212121;}</style></defs><polygon class="cls-2" points="53.05 48.06 53.05 53.05 41.88 53.05 41.88 49.37 40.03 49.37 40.03 53.05 28.43 53.05 28.43 47.5 26.57 47.5 26.57 53.05 14.47 53.05 14.47 49.37 12.61 49.37 12.61 53.05 1.95 53.05 1.95 42.75 6.09 42.75 6.09 40.81 1.95 40.81 1.95 28.6 9.42 28.6 9.42 26.65 1.95 26.65 1.95 15.59 6.09 15.59 6.09 13.64 1.95 13.64 1.95 2.58 7.83 2.58 7.83 .63 0 .63 0 55 55 55 55 48.06 53.05 48.06"/><path class="cls-1" d="M18.73,21.71h2.65l.31,2.19h.08c1.34-1.42,2.9-2.53,4.81-2.53,2.36,0,3.67,1.02,4.35,2.84,1.56-1.65,3.13-2.84,5.09-2.84,3.27,0,4.81,2.19,4.81,6.14v8.11h-3.24v-7.65c0-2.73-.85-3.81-2.65-3.81-1.05,0-2.22.71-3.53,2.13v9.33h-3.27v-7.65c0-2.73-.8-3.81-2.59-3.81-1.08,0-2.28.71-3.56,2.13v9.33h-3.27v-13.91ZM35.37,18.84l.94-1.42c.68.63,1.48,1.05,2.53,1.05,1,0,1.62-.37,1.62-1.17,0-.74-.77-1.17-2.45-1.17v-1.37c1.45,0,2.11-.54,2.11-1.19s-.48-1.02-1.39-1.02c-.77,0-1.45.28-2.19.85l-.97-1.37c.91-.77,2.11-1.28,3.56-1.28,1.93,0,3.53,1,3.53,2.56,0,1.02-.54,1.74-1.62,2.13,1.19.28,1.85,1.05,1.85,2.13,0,1.65-1.54,2.65-3.84,2.65-1.37,0-2.62-.48-3.67-1.39Z"/></svg>