<?xml version="1.0" encoding="UTF-8"?><svg id="_레이어_1" xmlns="http://www.w3.org/2000/svg" viewBox="0 0 55 55"><defs><style>.cls-1{fill:#222;}.cls-1,.cls-2{stroke-width:0px;}.cls-2{fill:#6069e2;}</style></defs><path class="cls-1" d="M27.5,35.65s-.01,0-.02,0h0c-1.15-.02-1.64-1.08-2.71-3.37-.29-.62-.61-1.32-.99-2.1,0,0,0-.02-.01-.02-.37-.81-.81-1.71-1.28-2.66-1.24-2.55-2.65-5.45-3.82-8.58-1.84-4.93-2.01-8.92-.51-11.86,1.66-3.41,5.4-5.69,9.32-5.69s7.69,2.29,9.34,5.69c1.5,2.94,1.33,6.93-.51,11.86-1.17,3.13-2.58,6.02-3.82,8.58-.46.95-.9,1.86-1.28,2.66,0,0,0,.02-.01.03-.38.78-.71,1.48-1,2.1-1.07,2.31-1.56,3.36-2.72,3.36ZM25.9,29.16c.39.79.72,1.5,1.01,2.13.2.42.4.87.59,1.25.19-.38.4-.83.59-1.25.29-.63.62-1.34,1.01-2.13.38-.83.82-1.74,1.29-2.7,1.22-2.51,2.6-5.35,3.73-8.37,1.6-4.29,1.8-7.65.61-9.98,0,0,0-.02-.01-.02-1.06-2.18-3.7-4.38-7.21-4.38s-6.18,2.2-7.23,4.38c0,0,0,.02-.01.02-1.19,2.33-.99,5.69.61,9.98,1.13,3.02,2.51,5.86,3.73,8.37.47.96.91,1.87,1.29,2.7Z"/><path class="cls-1" d="M27.5,15.95c-2.56,0-4.65-2.08-4.65-4.65s2.08-4.65,4.65-4.65,4.65,2.08,4.65,4.65-2.08,4.65-4.65,4.65ZM27.5,9c-1.27,0-2.3,1.03-2.3,2.3s1.03,2.3,2.3,2.3,2.3-1.03,2.3-2.3-1.03-2.3-2.3-2.3Z"/><polygon class="cls-2" points="50.13 52.47 4.86 52.47 9.84 41.35 45.16 41.35 50.13 52.47"/><path class="cls-1" d="M50.14,53.64H4.86c-.4,0-.77-.2-.99-.54-.22-.33-.25-.76-.09-1.12l4.98-11.12c.19-.42.61-.69,1.07-.69h35.32c.46,0,.88.27,1.07.69l4.93,11.02c.09.17.15.36.15.57,0,.65-.53,1.17-1.17,1.17ZM6.68,51.29h41.65l-3.92-8.77H10.6l-3.92,8.77Z"/></svg>