<?xml version="1.0" encoding="UTF-8"?><svg id="_레이어_1" xmlns="http://www.w3.org/2000/svg" viewBox="0 0 55 55"><defs><style>.cls-1{fill:#6069e2;}.cls-1,.cls-2,.cls-3{stroke-width:0px;}.cls-2{fill:#fff;}.cls-3{fill:#231f20;}</style></defs><rect class="cls-3" x="36.07" y="33.35" width="1.46" height="11.74"/><rect class="cls-3" x="17.25" y="33.35" width="1.46" height="11.74"/><rect class="cls-1" x="14.59" y="29.35" width="25.83" height="4"/><path class="cls-3" d="M41.15,34.08H13.85v-5.46h27.29v5.46ZM15.32,32.62h24.37v-2.54H15.32v2.54Z"/><path class="cls-2" d="M41.17,36.67h2.73v-6.81h0c0-2.56,2.07-4.63,4.63-4.63h.11c2.56,0,4.63,2.07,4.63,4.63h0v12.26h-11.74"/><path class="cls-3" d="M54,42.85h-12.47v-1.46h11.01v-11.53c0-2.15-1.75-3.9-3.9-3.9h-.11c-2.15,0-3.9,1.75-3.9,3.9v7.54h-3.46v-1.46h2v-6.08c0-2.96,2.41-5.36,5.36-5.36h.11c2.96,0,5.37,2.41,5.37,5.36v12.99Z"/><path class="cls-2" d="M44.81,18.89c0,2.08,1.69,3.77,3.77,3.77h0c2.08,0,3.77-1.69,3.77-3.77v-1.36c0-2.08-1.69-3.77-3.77-3.77h0c-2.08,0-3.77,1.69-3.77,3.77v1.36Z"/><path class="cls-3" d="M48.58,23.39c-2.48,0-4.5-2.02-4.5-4.5v-1.36c0-2.48,2.02-4.5,4.5-4.5s4.5,2.02,4.5,4.5v1.36c0,2.48-2.02,4.5-4.5,4.5ZM48.58,14.49c-1.68,0-3.04,1.36-3.04,3.04v1.36c0,1.68,1.36,3.04,3.04,3.04s3.04-1.36,3.04-3.04v-1.36c0-1.68-1.36-3.04-3.04-3.04Z"/><path class="cls-2" d="M13.83,36.67h-2.73v-6.81h0c0-2.56-2.07-4.63-4.63-4.63h-.11c-2.56,0-4.63,2.07-4.63,4.63h0v12.26h11.74"/><path class="cls-3" d="M13.47,42.85H1v-12.99c0-2.96,2.41-5.36,5.36-5.36h.11c2.96,0,5.36,2.41,5.36,5.36v6.08h2v1.46h-3.46v-7.54c0-2.15-1.75-3.9-3.9-3.9h-.11c-2.15,0-3.9,1.75-3.9,3.9v11.53h11.01v1.46Z"/><path class="cls-2" d="M33.93,26.78v-1.49h0c0-2.56-2.07-4.63-4.63-4.63h-3.6c-2.56,0-4.63,2.07-4.63,4.63h0v1.49"/><path class="cls-3" d="M34.66,26.78h-1.46v-1.49c0-2.15-1.75-3.9-3.9-3.9h-3.6c-2.15,0-3.9,1.75-3.9,3.9v1.49h-1.46v-1.49c0-2.96,2.41-5.36,5.36-5.36h3.6c2.96,0,5.36,2.41,5.36,5.36v1.49Z"/><path class="cls-2" d="M10.19,18.89c0,2.08-1.69,3.77-3.77,3.77h0c-2.08,0-3.77-1.69-3.77-3.77v-1.36c0-2.08,1.69-3.77,3.77-3.77h0c2.08,0,3.77,1.69,3.77,3.77v1.36Z"/><path class="cls-3" d="M6.42,23.39c-2.48,0-4.5-2.02-4.5-4.5v-1.36c0-2.48,2.02-4.5,4.5-4.5s4.5,2.02,4.5,4.5v1.36c0,2.48-2.02,4.5-4.5,4.5ZM6.42,14.49c-1.68,0-3.04,1.36-3.04,3.04v1.36c0,1.68,1.36,3.04,3.04,3.04s3.04-1.36,3.04-3.04v-1.36c0-1.68-1.36-3.04-3.04-3.04Z"/><path class="cls-2" d="M31.27,13.97c0,2.08-1.69,3.77-3.77,3.77h0c-2.08,0-3.77-1.69-3.77-3.77v-1.36c0-2.08,1.69-3.77,3.77-3.77h0c2.08,0,3.77,1.69,3.77,3.77v1.36Z"/><path class="cls-3" d="M27.5,18.47c-2.48,0-4.5-2.02-4.5-4.5v-1.36c0-2.48,2.02-4.5,4.5-4.5s4.5,2.02,4.5,4.5v1.36c0,2.48-2.02,4.5-4.5,4.5ZM27.5,9.57c-1.68,0-3.04,1.36-3.04,3.04v1.36c0,1.68,1.36,3.04,3.04,3.04s3.04-1.36,3.04-3.04v-1.36c0-1.68-1.36-3.04-3.04-3.04Z"/></svg>