<?xml version="1.0" encoding="UTF-8"?><svg id="_레이어_1" xmlns="http://www.w3.org/2000/svg" viewBox="0 0 55 55"><defs><style>.cls-1{fill:#6069e2;}.cls-1,.cls-2,.cls-3{stroke-width:0px;}.cls-2{fill:#fff;}.cls-3{fill:#231f20;}</style></defs><path class="cls-3" d="M27.5,25.64c-6.71,0-12.17-5.46-12.17-12.17S20.79,1.3,27.5,1.3s12.17,5.46,12.17,12.17-5.46,12.17-12.17,12.17ZM27.5,2.99c-5.78,0-10.48,4.7-10.48,10.48s4.7,10.48,10.48,10.48,10.48-4.7,10.48-10.48-4.7-10.48-10.48-10.48Z"/><rect class="cls-2" x="1.56" y="15.11" width="51.87" height="37.75" rx="3.65" ry="3.65"/><path class="cls-3" d="M49.78,53.7H5.22c-2.48,0-4.5-2.02-4.5-4.5v-30.44c0-2.48,2.02-4.5,4.5-4.5h44.57c2.48,0,4.5,2.02,4.5,4.5v30.44c0,2.48-2.02,4.5-4.5,4.5ZM5.22,15.96c-1.55,0-2.81,1.26-2.81,2.81v30.44c0,1.55,1.26,2.81,2.81,2.81h44.57c1.55,0,2.81-1.26,2.81-2.81v-30.44c0-1.55-1.26-2.81-2.81-2.81H5.22Z"/><rect class="cls-3" x="5.58" y="35.33" width="43.84" height="1.69"/><polyline class="cls-1" points="21.47 36.74 21.47 44.23 33.53 44.23 33.53 36.74"/><polygon class="cls-3" points="34.37 45.08 20.63 45.08 20.63 36.74 22.32 36.74 22.32 43.39 32.68 43.39 32.68 36.74 34.37 36.74 34.37 45.08"/></svg>