<?xml version="1.0" encoding="UTF-8"?><svg id="_레이어_1" xmlns="http://www.w3.org/2000/svg" xmlns:xlink="http://www.w3.org/1999/xlink" viewBox="0 0 55 55"><defs><style>.cls-1{fill:#222;}.cls-1,.cls-2{stroke-width:0px;}.cls-2,.cls-3{fill:#6069e2;}.cls-4{clip-path:url(#clippath);}</style><clipPath id="clippath"><path class="cls-2" d="M19.8,16.32c1.02-.6,1.28-1.83.63-2.76-2.09-2.96-3.81-6.05-5.16-9.22-.42-.99-1.55-1.32-2.57-.72-.62.36-1.24.72-1.85,1.09-1.02.6-2.69,1.57-3.71,2.17-.79.46-1.58.93-2.37,1.39-1.02.6-1.81,2.11-1.71,3.36.31,3.69,1,7.31,2.02,10.8.34,1.18.98,3.08,1.43,4.21,2.14,5.58,5.19,10.77,9,15.36.77.95,2.11,2.43,2.98,3.3,2.55,2.6,5.37,4.97,8.44,7.05,1.03.7,2.74.75,3.76.15,1.22-.72,2.44-1.43,3.67-2.15,1.02-.6,2.69-1.57,3.71-2.17.19-.11.37-.22.56-.33,1.02-.6,1.29-1.75.63-2.6-2.11-2.72-3.96-5.74-5.52-9-.49-1.02-1.69-1.4-2.71-.8-.99.58-1.98,1.16-2.97,1.74-1.02.6-2.53.35-3.31-.59-3.82-4.6-6.86-9.79-9-15.36-.44-1.14.08-2.58,1.1-3.18.99-.58,1.98-1.16,2.97-1.74Z"/></clipPath></defs><path class="cls-3" d="M19.8,16.32c1.02-.6,1.28-1.83.63-2.76-2.09-2.96-3.81-6.05-5.16-9.22-.42-.99-1.55-1.32-2.57-.72-.62.36-1.24.72-1.85,1.09-1.02.6-2.69,1.57-3.71,2.17-.79.46-1.58.93-2.37,1.39-1.02.6-1.81,2.11-1.71,3.36.31,3.69,1,7.31,2.02,10.8.34,1.18.98,3.08,1.43,4.21,2.14,5.58,5.19,10.77,9,15.36.77.95,2.11,2.43,2.98,3.3,2.55,2.6,5.37,4.97,8.44,7.05,1.03.7,2.74.75,3.76.15,1.22-.72,2.44-1.43,3.67-2.15,1.02-.6,2.69-1.57,3.71-2.17.19-.11.37-.22.56-.33,1.02-.6,1.29-1.75.63-2.6-2.11-2.72-3.96-5.74-5.52-9-.49-1.02-1.69-1.4-2.71-.8-.99.58-1.98,1.16-2.97,1.74-1.02.6-2.53.35-3.31-.59-3.82-4.6-6.86-9.79-9-15.36-.44-1.14.08-2.58,1.1-3.18.99-.58,1.98-1.16,2.97-1.74Z"/><g class="cls-4"><polygon class="cls-2" points="3.43 3.03 2.96 3.6 2.96 3.03 3.43 3.03"/><polygon class="cls-2" points="4.72 3.03 2.96 5.17 2.96 3.6 3.43 3.03 4.72 3.03"/><polygon class="cls-2" points="6 3.03 2.96 6.75 2.96 5.17 4.72 3.03 6 3.03"/><polygon class="cls-2" points="7.29 3.03 2.96 8.32 2.96 6.75 6 3.03 7.29 3.03"/><polygon class="cls-2" points="8.58 3.03 2.96 9.89 2.96 8.32 7.29 3.03 8.58 3.03"/><polygon class="cls-2" points="9.86 3.03 2.96 11.46 2.96 9.89 8.58 3.03 9.86 3.03"/><polygon class="cls-2" points="11.15 3.03 2.96 13.04 2.96 11.46 9.86 3.03 11.15 3.03"/><polygon class="cls-2" points="12.44 3.03 2.96 14.61 2.96 13.04 11.15 3.03 12.44 3.03"/><polygon class="cls-2" points="13.72 3.03 2.96 16.18 2.96 14.61 12.44 3.03 13.72 3.03"/><polygon class="cls-2" points="15.01 3.03 2.96 17.75 2.96 16.18 13.72 3.03 15.01 3.03"/><polygon class="cls-2" points="15.25 3.03 15.88 3.54 2.96 19.33 2.96 17.75 15.01 3.03 15.25 3.03"/><polygon class="cls-2" points="15.88 3.54 16.65 4.17 2.96 20.9 2.96 19.33 15.88 3.54"/><polygon class="cls-2" points="16.65 4.17 17.42 4.8 2.96 22.47 2.96 20.9 16.65 4.17"/><polygon class="cls-2" points="17.42 4.8 18.19 5.43 2.96 24.04 2.96 22.47 17.42 4.8"/><polygon class="cls-2" points="18.19 5.43 18.96 6.06 2.96 25.62 2.96 24.04 18.19 5.43"/><polygon class="cls-2" points="18.96 6.06 19.73 6.69 2.96 27.19 2.96 25.62 18.96 6.06"/><polygon class="cls-2" points="19.73 6.69 20.5 7.32 2.96 28.76 2.96 27.19 19.73 6.69"/><polygon class="cls-2" points="20.5 7.32 21.27 7.95 2.96 30.33 2.96 28.76 20.5 7.32"/><polygon class="cls-2" points="21.27 7.95 22.04 8.58 2.96 31.91 2.96 30.33 21.27 7.95"/><polygon class="cls-2" points="22.04 8.58 22.81 9.21 2.96 33.48 2.96 31.91 22.04 8.58"/><polygon class="cls-2" points="22.81 9.21 23.58 9.84 3.56 34.32 2.96 33.83 2.96 33.48 22.81 9.21"/><rect class="cls-2" x="-1.86" y="21.9" width="31.62" height="1" transform="translate(-12.22 19.03) rotate(-50.75)"/><rect class="cls-2" x="-1.08" y="22.53" width="31.62" height="1" transform="translate(-12.42 19.84) rotate(-50.7)"/><rect class="cls-2" x="-.31" y="23.16" width="31.62" height=".99" transform="translate(-12.63 20.67) rotate(-50.71)"/><rect class="cls-2" x=".46" y="23.79" width="31.62" height="1" transform="translate(-12.83 21.49) rotate(-50.7)"/><rect class="cls-2" x="1.23" y="24.42" width="31.62" height="1" transform="translate(-13.04 22.33) rotate(-50.71)"/><rect class="cls-2" x="2" y="25.05" width="31.62" height="1" transform="translate(-13.24 23.15) rotate(-50.7)"/><rect class="cls-2" x="2.77" y="25.68" width="31.62" height="1" transform="translate(-13.45 24) rotate(-50.75)"/><rect class="cls-2" x="3.54" y="26.31" width="31.62" height="1" transform="translate(-13.65 24.81) rotate(-50.7)"/><rect class="cls-2" x="4.31" y="26.94" width="31.62" height="1" transform="translate(-13.86 25.61) rotate(-50.67)"/><rect class="cls-2" x="5.08" y="27.57" width="31.62" height="1" transform="translate(-14.06 26.49) rotate(-50.75)"/><rect class="cls-2" x="5.85" y="28.2" width="31.62" height="1" transform="translate(-14.27 27.29) rotate(-50.71)"/><rect class="cls-2" x="6.62" y="28.83" width="31.62" height="1" transform="translate(-14.47 28.12) rotate(-50.7)"/><rect class="cls-2" x="7.39" y="29.46" width="31.62" height="1" transform="translate(-14.68 28.94) rotate(-50.7)"/><rect class="cls-2" x="8.16" y="30.1" width="31.62" height="1" transform="translate(-14.89 29.8) rotate(-50.75)"/><rect class="cls-2" x="8.93" y="30.73" width="31.62" height="1" transform="translate(-15.09 30.57) rotate(-50.67)"/><rect class="cls-2" x="9.7" y="31.36" width="31.62" height="1" transform="translate(-15.3 31.46) rotate(-50.75)"/><rect class="cls-2" x="10.48" y="31.99" width="31.62" height="1" transform="translate(-15.5 32.23) rotate(-50.67)"/><rect class="cls-2" x="11.25" y="32.62" width="31.62" height="1" transform="translate(-15.71 33.11) rotate(-50.75)"/><rect class="cls-2" x="12.02" y="33.25" width="31.62" height="1" transform="translate(-15.91 33.91) rotate(-50.7)"/><rect class="cls-2" x="12.79" y="33.88" width="31.62" height="1" transform="translate(-16.12 34.77) rotate(-50.75)"/><rect class="cls-2" x="13.56" y="34.51" width="31.62" height="1" transform="translate(-16.32 35.54) rotate(-50.67)"/><polygon class="cls-2" points="39.77 23.08 39.91 23.2 39.91 24.48 20.51 48.19 19.74 47.56 39.77 23.08"/><polygon class="cls-2" points="39.91 26.05 21.28 48.82 20.51 48.19 39.91 24.48 39.91 26.05"/><polygon class="cls-2" points="39.91 27.63 22.05 49.45 21.28 48.82 39.91 26.05 39.91 27.63"/><polygon class="cls-2" points="39.91 29.2 22.82 50.08 22.05 49.45 39.91 27.63 39.91 29.2"/><polygon class="cls-2" points="39.91 30.77 23.6 50.71 22.82 50.08 39.91 29.2 39.91 30.77"/><polygon class="cls-2" points="39.91 32.34 24.37 51.34 23.6 50.71 39.91 30.77 39.91 32.34"/><polygon class="cls-2" points="39.91 33.92 25.14 51.97 24.37 51.34 39.91 32.34 39.91 33.92"/><polygon class="cls-2" points="39.91 35.49 25.91 52.6 25.14 51.97 39.91 33.92 39.91 35.49"/><polygon class="cls-2" points="39.91 37.06 26.78 53.11 26.52 53.11 25.91 52.6 39.91 35.49 39.91 37.06"/><polygon class="cls-2" points="39.91 38.63 28.07 53.11 26.78 53.11 39.91 37.06 39.91 38.63"/><polygon class="cls-2" points="39.91 40.21 29.36 53.11 28.07 53.11 39.91 38.63 39.91 40.21"/><polygon class="cls-2" points="39.91 41.78 30.64 53.11 29.36 53.11 39.91 40.21 39.91 41.78"/><polygon class="cls-2" points="39.91 43.35 31.93 53.11 30.64 53.11 39.91 41.78 39.91 43.35"/><polygon class="cls-2" points="39.91 44.92 33.22 53.11 31.93 53.11 39.91 43.35 39.91 44.92"/><polygon class="cls-2" points="39.91 46.49 34.5 53.11 33.22 53.11 39.91 44.92 39.91 46.49"/><polygon class="cls-2" points="39.91 48.07 35.79 53.11 34.5 53.11 39.91 46.49 39.91 48.07"/><polygon class="cls-2" points="35.79 53.11 39.91 48.07 39.91 53.11 35.79 53.11"/></g><path class="cls-1" d="M28.98,54.19c-1.03,0-2.01-.28-2.75-.78-3.11-2.1-6.01-4.53-8.63-7.21-.88-.89-2.26-2.41-3.05-3.39-3.91-4.7-7.01-9.99-9.2-15.71-.46-1.16-1.11-3.1-1.46-4.32-1.05-3.59-1.75-7.31-2.07-11.04-.15-1.7.88-3.7,2.33-4.55l7.93-4.65c.53-.31,1.11-.47,1.68-.47,1.19,0,2.22.69,2.69,1.79,1.3,3.08,2.99,6.1,5.03,8.99.52.74.7,1.62.52,2.49-.19.88-.74,1.62-1.54,2.09l-2.97,1.74c-.5.29-.77,1.09-.56,1.63,2.1,5.46,5.06,10.51,8.8,15.01.24.28.65.46,1.09.46.23,0,.45-.05.61-.15l2.97-1.74c.51-.3,1.09-.46,1.66-.46,1.21,0,2.3.69,2.83,1.8,1.52,3.18,3.33,6.13,5.38,8.78.53.68.73,1.51.57,2.34-.17.87-.74,1.64-1.56,2.12l-7.93,4.65c-.65.38-1.48.59-2.36.59ZM13.75,4.59c-.12,0-.26.04-.4.13l-7.93,4.65c-.61.36-1.15,1.43-1.09,2.16.3,3.57.97,7.12,1.98,10.56.33,1.14.96,3.02,1.39,4.11,2.1,5.47,5.06,10.52,8.8,15.02.75.91,2.08,2.39,2.9,3.22,2.51,2.57,5.28,4.88,8.25,6.89.32.22.82.35,1.33.35.42,0,.83-.09,1.08-.24l7.93-4.65c.2-.12.33-.27.36-.42.02-.11,0-.21-.09-.31-2.16-2.78-4.06-5.89-5.66-9.23-.17-.36-.57-.47-.94-.26l-2.97,1.74c-.55.32-1.21.5-1.89.5-1.18,0-2.32-.51-3.03-1.37-3.91-4.71-7.01-10-9.21-15.72-.65-1.69.08-3.81,1.64-4.72l2.97-1.74c.19-.11.31-.26.35-.44.04-.17,0-.34-.11-.5-2.13-3.03-3.91-6.21-5.29-9.45-.07-.17-.19-.25-.37-.25Z"/><path class="cls-1" d="M50.96,30.68c-.12,0-.25-.02-.37-.06-.67-.21-1.04-.91-.83-1.58,1.62-5.26,1.1-10.83-1.47-15.7-2.57-4.87-6.88-8.44-12.14-10.06-.67-.21-1.04-.91-.83-1.58.21-.67.91-1.04,1.58-.83,5.9,1.82,10.74,5.83,13.63,11.3,2.88,5.46,3.47,11.72,1.65,17.62-.17.54-.67.89-1.21.89Z"/><path class="cls-1" d="M43.35,28.33c-.12,0-.25-.02-.37-.06-.67-.21-1.04-.91-.83-1.58,1-3.23.68-6.65-.9-9.63-1.58-2.99-4.22-5.18-7.45-6.17-.67-.21-1.04-.91-.83-1.58.21-.67.91-1.04,1.58-.83,3.87,1.19,7.04,3.83,8.94,7.41,1.89,3.58,2.28,7.69,1.08,11.56-.17.54-.67.89-1.21.89Z"/><path class="cls-1" d="M35.99,26.06c-.12,0-.25-.02-.37-.06-.67-.21-1.04-.91-.83-1.58.39-1.26.26-2.59-.35-3.76-.62-1.17-1.65-2.02-2.91-2.41-.67-.21-1.04-.91-.83-1.58.21-.67.91-1.04,1.58-.83,1.9.59,3.46,1.88,4.4,3.64.93,1.76,1.12,3.78.53,5.68-.17.54-.67.89-1.21.89Z"/></svg>