<?xml version="1.0" encoding="UTF-8"?><svg id="_레이어_1" xmlns="http://www.w3.org/2000/svg" viewBox="0 0 25 25"><defs><style>.cls-1{fill:#1d2088;stroke-width:0px;}</style></defs><path class="cls-1" d="M23.31,3.82c-2.07-2.07-5.44-2.07-7.52,0L5.42,14.19c-1.2,1.2-1.2,3.16,0,4.36,1.2,1.2,3.16,1.2,4.36,0l9.73-9.73-1.13-1.13-9.73,9.73c-.58.58-1.52.58-2.1,0-.58-.58-.58-1.52,0-2.1l10.37-10.37c1.45-1.45,3.81-1.45,5.26,0s1.45,3.81,0,5.26l-10.56,10.56c-1.09,1.09-2.55,1.7-4.1,1.7s-3-.6-4.1-1.7c-1.09-1.09-1.7-2.55-1.7-4.1s.6-3,1.7-4.1L13.88,2.13l-1.13-1.13L2.3,11.45C.91,12.85.14,14.7.14,16.67s.77,3.83,2.16,5.22c1.4,1.4,3.25,2.16,5.22,2.16s3.83-.77,5.22-2.16l10.56-10.56c2.07-2.07,2.07-5.44,0-7.52Z"/></svg>