<?xml version="1.0" encoding="UTF-8"?><svg id="_레이어_1" xmlns="http://www.w3.org/2000/svg" viewBox="0 0 20 20"><defs><style>.cls-1{fill:#1d2088;stroke-width:0px;}</style></defs><path class="cls-1" d="M18.46,2.96H5.25v11.58c0,.95-.78,1.73-1.73,1.73H.99s-.04,0-.07,0v.85c0,.65.53,1.18,1.18,1.18h16.35c.65,0,1.18-.53,1.18-1.18V4.14c0-.65-.53-1.18-1.18-1.18ZM7.69,5.24h9.03v2.58H7.69v-2.58ZM8.98,14.57h-1.26c-.31,0-.55-.25-.55-.55s.25-.55.55-.55h1.26c.31,0,.55.25.55.55s-.25.55-.55.55ZM8.98,11.48h-1.26c-.31,0-.55-.25-.55-.55s.25-.55.55-.55h1.26c.31,0,.55.25.55.55s-.25.55-.55.55ZM12.84,14.57h-1.26c-.31,0-.55-.25-.55-.55s.25-.55.55-.55h1.26c.31,0,.55.25.55.55s-.25.55-.55.55ZM12.84,11.48h-1.26c-.31,0-.55-.25-.55-.55s.25-.55.55-.55h1.26c.31,0,.55.25.55.55s-.25.55-.55.55ZM16.7,14.57h-1.26c-.31,0-.55-.25-.55-.55s.25-.55.55-.55h1.26c.31,0,.55.25.55.55s-.25.55-.55.55ZM16.7,11.48h-1.26c-.31,0-.55-.25-.55-.55s.25-.55.55-.55h1.26c.31,0,.55.25.55.55s-.25.55-.55.55Z"/><rect class="cls-1" x=".37" y="1.7" width="3.77" height="13.47" rx=".62" ry=".62"/></svg>