<?xml version="1.0" encoding="UTF-8"?><svg id="_레이어_1" xmlns="http://www.w3.org/2000/svg" viewBox="0 0 20 20"><defs><style>.cls-1{fill:#1d2088;fill-rule:evenodd;stroke-width:0px;}</style></defs><path class="cls-1" d="M11.47,9.62l.13-.1h0s.12-.1.12-.1h.02s.11-.1.11-.1l.03-.03.09-.07.05-.04.08-.06.07-.05.06-.05.08-.07.04-.04.1-.08.03-.02.11-.09h.01s.13-.11.13-.11h0s.12-.1.12-.1h.02s.11-.1.11-.1l.03-.03.09-.07.13-.1.07-.05.06-.05.08-.06.04-.04.1-.08.03-.02.11-.09h.01s.13-.11.13-.11h0s.12-.1.12-.1h.02s.11-.1.11-.1l.03-.03.09-.07.05-.04.08-.06.07-.05.06-.05.08-.06.05-.04.1-.08.03-.02.11-.09h.01s.13-.11.13-.11h0s.12-.1.12-.1l.13-.1.03-.03.09-.07.05-.04.08-.06.06-.05.06-.05.08-.06.05-.04.1-.08.03-.02.11-.09h.01s.13-.11.13-.11h0s.38-.3.38-.3l.05-.04.08-.06.06-.05.06-.05.08-.06.05-.04.1-.08.03-.02.11-.09h.01s.13-.11.13-.11h0s.12-.1.12-.1h.02s.11-.1.11-.1l.03-.03.09-.07.05-.04.08-.06.06-.05.06-.05.08-.06.05-.04.1-.08.03-.02.11-.09h.02s.13-.11.13-.11h0s.13-.1.13-.1h.02s.11-.1.11-.1l.03-.03.09-.08.05-.04.08-.06.06-.05.06-.05.08-.06.05-.04.09-.08.03-.03.11-.09h.02s.13-.11.13-.11h0s0,0,0,0h0s0,0,0,0h0s0,0,0,0h0s0,0,0,0h0s0,0,0,0h0s0,0,0,0h0s0,0,0,0h0s0,0,0,0h0s0,0,0,0h0s0,0,0,0h0s0,0,0,0h0s0,0,0,0h0s0,0,0,0h0s0,0,0,0h0s0,0,0,0h0s0,0,0,0h0s0,0,0,0h0s0,0,0,0h0s0,0,0,0h0s0,0,0,0h0s0,0,0,0h0s0,0,0,0h0s0,0,0,0h0s0,0,0,0h0s0,0,0,0h0s0,0,0,0h0s0,0,0,0h0s0,0,0,0h0s0,0,0,0h0s0,0,0,0h0s0,0,0,0h0s0,0,0,0h0s0,0,0,0h0s0,0,0,0h0s0,0,0,0h0s0,0,0,0h0s0,0,0,0H.8s0,0,0,0h0s0,0,0,0h0s0,0,0,0h0s0,0,0,0h0s0,0,0,0h0s0,0,0,0h0s0,0,0,0h0s0,0,0,0h0s0,0,0,0h0s0,0,0,0h0s0,0,0,0h0s0,0,0,0h0s0,0,0,0h0s0,0,0,0h0s0,0,0,0h0s0,0,0,0h0s0,0,0,0h0s0,0,0,0h0s0,0,0,0h0s0,0,0,0h0s0,0,0,0h0s0,0,0,0h0s0,0,0,0h0s0,0,0,0h0s0,0,0,0h0s0,0,0,0h0s0,0,0,0h0s0,0,0,0h0s0,0,0,0h0s0,0,0,0h0s0,0,0,0h0s0,0,0,0h0s0,0,0,0h0s0,0,0,0l9.02,7.25c.39.31.6.29.98-.02.33-.27.66-.54.99-.81h0ZM7.37,9.97L.34,15.68V4.32l7.03,5.65h0ZM11.5,10.84l8,5.97h0s0,0,0,0h0s0,0,0,0h0s0,0,0,0h0s0,0,0,0h0s0,0,0,0h0s0,0,0,0h0s0,0,0,0h0s0,0,0,0h0s0,0,0,0h0s0,0,0,0h0s0,0,0,0h0s0,0,0,0h0s0,0,0,0h0s0,0,0,0h0s0,0,0,0h0s0,0,0,0h0s0,0,0,0h0s0,0,0,0h0s0,0,0,0h0s0,0,0,0h0s0,0,0,0h0s0,0,0,0h0s0,0,0,0h0s0,0,0,0h0s0,0,0,0h0s0,0,0,0h0s0,0,0,0h0s0,0,0,0h0s0,0,0,0h0s0,0,0,0h0s0,0,0,0h0s0,0,0,0h0s0,0,0,0h0s0,0,0,0h0s0,0,0,0h0s0,0,0,0h0s0,0,0,0h0s0,0,0,0h0s0,0,0,0h0s0,0,0,0h0s0,0,0,0h0s0,0,0,0h0s0,0,0,0H.8s0,0,0,0h0s0,0,0,0h0s0,0,0,0h0s-.05,0-.08-.01h0s0,0,0,0h0c-.08-.02-.15-.07-.21-.12l7.65-6.21.76.61c.77.59,1.47.58,2.19-.03l.42-.33h0ZM19.66,4.31v11.42l-7.39-5.51,7.39-5.91Z"/></svg>