<?xml version="1.0" encoding="UTF-8"?><svg id="_레이어_1" xmlns="http://www.w3.org/2000/svg" viewBox="0 0 15 15"><defs><style>.cls-1{fill:#fff;stroke-width:0px;}</style></defs><path class="cls-1" d="M7.15,3.91c.3-.18.38-.55.19-.82-.62-.88-1.14-1.81-1.54-2.75-.13-.3-.46-.39-.77-.22-.18.11-.37.22-.55.32-.3.18-.8.47-1.11.65-.24.14-.47.28-.71.41-.3.18-.54.63-.51,1,.09,1.1.3,2.18.6,3.22.1.35.29.92.43,1.26.64,1.66,1.55,3.21,2.69,4.58.23.28.63.73.89.99.76.78,1.6,1.48,2.52,2.1.31.21.82.22,1.12.04.36-.21.73-.43,1.09-.64.3-.18.8-.47,1.11-.65.06-.03.11-.06.17-.1.3-.18.38-.52.19-.78-.63-.81-1.18-1.71-1.65-2.69-.15-.3-.51-.42-.81-.24-.3.17-.59.35-.88.52-.3.18-.75.1-.99-.18-1.14-1.37-2.05-2.92-2.69-4.58-.13-.34.02-.77.33-.95.29-.17.59-.35.88-.52Z"/></svg>