<?xml version="1.0" encoding="UTF-8"?><svg id="_레이어_1" xmlns="http://www.w3.org/2000/svg" viewBox="0 0 15 15"><defs><style>.cls-1{fill:#fff;stroke-width:0px;}</style></defs><path class="cls-1" d="M11.47,2.63C10.77,1.18,9.17.2,7.5.2s-3.26.97-3.97,2.42c-.64,1.25-.57,2.95.22,5.05.5,1.33,1.1,2.56,1.63,3.65.2.41.38.79.54,1.13,0,0,0,0,0,.01.16.33.3.63.42.89.45.97.66,1.42,1.15,1.43h0s0,0,0,0c.49,0,.7-.45,1.16-1.43.12-.26.26-.56.42-.89,0,0,0,0,0-.01.16-.34.35-.73.54-1.13.53-1.09,1.13-2.32,1.63-3.65.78-2.1.85-3.8.22-5.05ZM7.5,6.38c-1.08,0-1.95-.87-1.95-1.95s.87-1.95,1.95-1.95,1.95.87,1.95,1.95-.87,1.95-1.95,1.95Z"/></svg>