<?xml version="1.0" encoding="UTF-8"?><svg id="_레이어_1" xmlns="http://www.w3.org/2000/svg" viewBox="0 0 15 15"><defs><style>.cls-1{fill:#fff;stroke-width:0px;}</style></defs><path class="cls-1" d="M11.69,3.92H3.31v-1.32c0-.46.37-.83.83-.83h6.71c.46,0,.83.37.83.83v1.32Z"/><rect class="cls-1" x="4.26" y="8.64" width="6.49" height="4.59"/><path class="cls-1" d="M14.05,4.48H.95c-.43,0-.78.35-.78.78v5.13c0,.43.35.78.78.78h2.67v-3.25h7.77v3.25h2.67c.43,0,.78-.35.78-.78v-5.13c0-.43-.35-.78-.78-.78ZM1.75,6.48c-.26,0-.47-.21-.47-.47s.21-.47.47-.47.47.21.47.47-.21.47-.47.47ZM3.31,6.48c-.26,0-.47-.21-.47-.47s.21-.47.47-.47.47.21.47.47-.21.47-.47.47Z"/></svg>