<?xml version="1.0" encoding="UTF-8"?><svg id="_레이어_1" xmlns="http://www.w3.org/2000/svg" viewBox="0 0 20 20"><defs><style>.cls-1{fill:#222;}.cls-1,.cls-2,.cls-3{stroke-width:0px;}.cls-2{fill:#fff;}.cls-3{fill:#1d2088;}</style></defs><rect class="cls-2" x=".97" y=".52" width="12.06" height="18.98"/><path class="cls-1" d="M13.43,19.9H.57V.12h12.87v19.78ZM1.37,19.1h11.25V.93H1.37v18.17Z"/><rect class="cls-2" x="13.03" y="6.21" width="6" height="13.29"/><path class="cls-1" d="M19.43,19.9h-6.81V5.81h6.81v14.09ZM13.43,19.1h5.2V6.62h-5.2v12.48Z"/><rect class="cls-2" x="3.64" y="3.48" width="2.43" height="2.43"/><path class="cls-1" d="M6.47,6.31h-3.23v-3.23h3.23v3.23ZM4.05,5.5h1.62v-1.62h-1.62v1.62Z"/><rect class="cls-3" x="7.93" y="3.48" width="2.43" height="2.43"/><path class="cls-3" d="M10.76,6.31h-3.23v-3.23h3.23v3.23ZM8.33,5.5h1.62v-1.62h-1.62v1.62Z"/><rect class="cls-2" x="3.64" y="8.67" width="2.43" height="2.43"/><path class="cls-1" d="M6.47,11.5h-3.23v-3.23h3.23v3.23ZM4.05,10.7h1.62v-1.62h-1.62v1.62Z"/><rect class="cls-2" x="7.93" y="8.67" width="2.43" height="2.43"/><path class="cls-1" d="M10.76,11.5h-3.23v-3.23h3.23v3.23ZM8.33,10.7h1.62v-1.62h-1.62v1.62Z"/><rect class="cls-2" x="15.1" y="9.4" width="1.86" height="1.86"/><path class="cls-1" d="M17.36,11.66h-2.66v-2.66h2.66v2.66ZM15.51,10.86h1.05v-1.05h-1.05v1.05Z"/><rect class="cls-2" x="15.1" y="13.53" width="1.86" height="1.86"/><path class="cls-1" d="M17.36,15.78h-2.66v-2.66h2.66v2.66ZM15.51,14.98h1.05v-1.05h-1.05v1.05Z"/><rect class="cls-2" x="3.64" y="13.87" width="2.43" height="2.43"/><path class="cls-1" d="M6.47,16.7h-3.23v-3.23h3.23v3.23ZM4.05,15.89h1.62v-1.62h-1.62v1.62Z"/><rect class="cls-2" x="7.93" y="13.87" width="2.43" height="2.43"/><path class="cls-1" d="M10.76,16.7h-3.23v-3.23h3.23v3.23ZM8.33,15.89h1.62v-1.62h-1.62v1.62Z"/></svg>