<?xml version="1.0" encoding="UTF-8"?><svg id="_레이어_1" xmlns="http://www.w3.org/2000/svg" viewBox="0 0 20 20"><defs><style>.cls-1{fill:#222;}.cls-1,.cls-2{stroke-width:0px;}.cls-2{fill:#1d2088;}</style></defs><path class="cls-1" d="M10.12,14.18h-2.7l-.27-1.76c-.37-.15-.72-.35-1.04-.6l-1.66.65-1.35-2.34,1.39-1.11c-.03-.2-.04-.4-.04-.6s.01-.4.04-.6l-1.39-1.11,1.35-2.34,1.66.65c.32-.25.66-.45,1.04-.6l.27-1.76h2.7l.27,1.76c.37.15.72.35,1.04.6l1.66-.65,1.35,2.34-1.4,1.11c.03.2.04.4.04.6s-.01.4-.04.6l1.4,1.11-1.35,2.34-1.66-.65c-.32.25-.67.45-1.04.6l-.27,1.76ZM8.14,13.34h1.26l.23-1.55.24-.08c.44-.15.84-.38,1.19-.69l.19-.17,1.46.57.63-1.09-1.22-.98.05-.25c.05-.23.07-.46.07-.69s-.02-.46-.07-.69l-.05-.25,1.22-.98-.63-1.09-1.46.57-.19-.17c-.35-.31-.75-.54-1.19-.69l-.24-.08-.23-1.55h-1.26l-.23,1.55-.24.08c-.44.15-.84.38-1.19.69l-.19.17-1.46-.57-.63,1.09,1.22.98-.05.25c-.05.23-.07.46-.07.69s.02.46.07.69l.05.25-1.22.98.63,1.09,1.46-.57.19.17c.35.31.75.54,1.19.69l.24.08.23,1.55ZM8.77,10.86c-1.35,0-2.45-1.1-2.45-2.45s1.1-2.45,2.45-2.45,2.45,1.1,2.45,2.45-1.1,2.45-2.45,2.45ZM8.77,6.81c-.89,0-1.6.72-1.6,1.61s.72,1.61,1.6,1.61,1.61-.72,1.61-1.61-.72-1.61-1.61-1.61Z"/><path class="cls-2" d="M14.73,18.72l-2.24-.6.16-1.45c-.12-.09-.23-.19-.34-.3s-.2-.22-.3-.34l-1.45.16-.51-1.89.81-.22.32,1.19,1.23-.14.14.21c.1.15.22.29.34.42.13.13.27.24.42.34l.21.14-.14,1.23.84.23.5-1.14.26-.02c.36-.02.71-.12,1.04-.28l.23-.11,1,.74.62-.62-.74-1,.11-.23c.16-.33.26-.68.28-1.04l.02-.26,1.14-.5-.23-.84-1.23.14-.14-.21c-.1-.15-.22-.29-.34-.42-.13-.13-.27-.24-.42-.34l-.21-.14.14-1.23-1.19-.32.22-.81,1.89.51-.16,1.45c.12.09.23.19.34.3.11.11.2.22.3.34l1.45-.16.6,2.24-1.34.58c-.04.3-.12.59-.23.86l.87,1.18-1.64,1.64-1.18-.87c-.28.11-.57.19-.86.23l-.58,1.34ZM14.83,15.91c-.55,0-1.06-.21-1.45-.6-.8-.8-.8-2.1,0-2.9h0c.39-.39.9-.6,1.45-.6s1.06.21,1.45.6c.8.8.8,2.1,0,2.9-.39.39-.9.6-1.45.6ZM14.83,12.64c-.32,0-.63.13-.86.35h0c-.47.47-.47,1.24,0,1.71.23.23.53.35.86.35s.63-.13.86-.35c.47-.47.47-1.24,0-1.71-.23-.23-.53-.35-.86-.35Z"/><path class="cls-2" d="M16.98,6.3l-.55.55c-.46-3.14-3.17-5.56-6.43-5.56v.84c2.73,0,5.02,1.95,5.55,4.53l-.37-.37-.59.59,1.51,1.51,1.49-1.49-.59-.59Z"/><path class="cls-2" d="M2.33,11.41l.37.37.59-.59-1.51-1.51-1.49,1.49.59.59.55-.55c.46,3.14,3.17,5.56,6.43,5.56v-.84c-2.73,0-5.02-1.95-5.55-4.53Z"/></svg>