<?xml version="1.0" encoding="UTF-8"?><svg id="_레이어_1" xmlns="http://www.w3.org/2000/svg" viewBox="0 0 20 20"><defs><style>.cls-1{fill:#222;}.cls-1,.cls-2,.cls-3{stroke-width:0px;}.cls-2{fill:#fff;}.cls-3{fill:#1d2088;}</style></defs><polyline class="cls-2" points="2.21 6.34 .62 6.34 .62 17.14 8.36 17.14 8.36 18.11 11.65 18.11 11.65 17.14 19.38 17.14 19.38 6.34 17.79 6.34"/><polygon class="cls-1" points="12.05 18.52 7.95 18.52 7.95 17.55 .21 17.55 .21 5.93 2.21 5.93 2.21 6.75 1.02 6.75 1.02 16.74 8.76 16.74 8.76 17.7 11.24 17.7 11.24 16.74 18.98 16.74 18.98 6.75 17.79 6.75 17.79 5.93 19.79 5.93 19.79 17.55 12.05 17.55 12.05 18.52"/><path class="cls-2" d="M10,16.25c-2.6-1.23-5.19-1.23-7.79-.41V5.42c2.6-1.06,5.19-1.06,7.79.41v10.41Z"/><path class="cls-1" d="M10.41,16.89l-.58-.28c-2.35-1.12-4.8-1.24-7.49-.39l-.53.17V5.15l.25-.1c2.85-1.16,5.59-1.02,8.15.43l.21.12v11.3ZM5.72,14.85c1.33,0,2.61.26,3.87.77V6.08c-2.22-1.19-4.51-1.32-6.97-.37v9.59c1.06-.29,2.09-.44,3.1-.44Z"/><path class="cls-2" d="M10,16.25c2.6-1.23,5.19-1.23,7.79-.41V5.42c-2.6-1.06-5.19-1.06-7.79.41v10.41Z"/><path class="cls-1" d="M9.59,16.89V5.6l.21-.12c2.56-1.45,5.3-1.6,8.15-.43l.25.1v11.24l-.53-.17c-2.69-.85-5.14-.72-7.49.39l-.58.28ZM10.41,6.08v9.54c2.21-.9,4.5-1.01,6.97-.33V5.7c-2.46-.94-4.75-.82-6.97.37Z"/><circle class="cls-3" cx="10.02" cy="6.7" r="4.81"/><path class="cls-1" d="M10.02,11.92c-2.88,0-5.22-2.34-5.22-5.22S7.14,1.48,10.02,1.48s5.22,2.34,5.22,5.22-2.34,5.22-5.22,5.22ZM10.02,2.3c-2.43,0-4.4,1.98-4.4,4.4s1.98,4.4,4.4,4.4,4.4-1.98,4.4-4.4-1.98-4.4-4.4-4.4Z"/><path class="cls-2" d="M10,5.39c-.4,0-.72-.32-.72-.72s.32-.72.72-.72.72.32.72.72-.32.72-.72.72ZM10,4.58c-.05,0-.1.04-.1.1s.04.1.1.1.1-.04.1-.1-.04-.1-.1-.1Z"/><polygon class="cls-2" points="10.78 9.4 9.59 9.4 9.59 6.75 9.24 6.75 9.24 5.93 10.41 5.93 10.41 8.58 10.78 8.58 10.78 9.4"/></svg>